<?xml version="1.0" standalone="no"?>
<!DOCTYPE svg PUBLIC "-//W3C//DTD SVG 20010904//EN"
 "http://www.w3.org/TR/2001/REC-SVG-20010904/DTD/svg10.dtd">
<svg version="1.0" xmlns="http://www.w3.org/2000/svg"
 width="301.000000pt" height="301.000000pt" viewBox="0 0 301.000000 301.000000"
 preserveAspectRatio="xMidYMid meet">
<metadata>
Created by potrace 1.11, written by Peter Selinger 2001-2013
</metadata>
<g transform="translate(0.000000,301.000000) scale(0.100000,-0.100000)"
fill="#000000" stroke="none">
<path d="M1280 2994 c-392 -60 -817 -311 -1008 -596 -166 -246 -270 -584 -270
-878 0 -483 201 -899 584 -1210 68 -54 219 -142 334 -193 95 -43 278 -92 386
-104 135 -15 371 -7 484 16 604 126 1055 578 1180 1182 24 115 36 390 20 489
-4 30 -11 75 -15 100 -25 170 -97 361 -188 495 -234 347 -554 576 -952 681
-87 24 -123 27 -280 30 -120 1 -212 -3 -275 -12z m421 -285 c123 -35 239 -147
274 -264 33 -108 10 -253 -55 -356 -18 -28 -84 -95 -146 -150 -63 -55 -125
-114 -138 -132 -44 -58 -76 -141 -84 -218 l-7 -74 -44 -3 -44 -3 6 128 c7 156
18 196 108 376 84 167 103 237 97 367 -7 137 -50 209 -144 240 -99 33 -238
-43 -211 -115 4 -8 28 -30 56 -50 90 -65 104 -162 35 -243 -113 -133 -305 -36
-304 152 2 266 296 434 601 345z m-54 -1525 c170 -82 212 -311 84 -457 -99
-113 -290 -123 -409 -23 -75 64 -113 179 -92 279 39 189 242 286 417 201z
m-1281 -127 c148 -74 360 -135 663 -189 l73 -13 17 -55 c53 -171 216 -290 396
-290 115 0 215 43 296 127 55 58 83 103 100 163 18 63 22 67 87 75 115 14 300
57 431 101 145 49 239 93 343 160 l66 43 -18 -68 c-73 -262 -248 -518 -475
-696 -497 -389 -1193 -389 -1690 0 -227 178 -402 434 -475 696 l-18 68 66 -43
c37 -24 99 -59 138 -79z"/>
<path d="M1442 1040 c-95 -58 -95 -192 0 -250 66 -40 156 -16 198 52 56 93
-15 218 -125 218 -22 0 -54 -9 -73 -20z"/>
</g>
</svg>
